HIERARCHY
ROOT Hips
{
	OFFSET 0.000000 0.000000 0.000000 
	CHANNELS 6 Xposition Yposition Zposition Zrotation Yrotation Xrotation
	JOINT LHipJoint
	{
		OFFSET 0.000000 0.000000 0.000000 
		CHANNELS 3 Zrotation Yrotation Xrotation
		JOINT LeftUpLeg
		{
			OFFSET 0.049174 -0.055197 0.022926 
			CHANNELS 3 Zrotation Yrotation Xrotation
			JOINT LeftLeg
			{
				OFFSET 0.075187 -0.206577 0.000000 
				CHANNELS 3 Zrotation Yrotation Xrotation
				JOINT LeftFoot
				{
					OFFSET 0.083177 -0.228528 0.000000 
					CHANNELS 3 Zrotation Yrotation Xrotation
					JOINT LeftToeBase
					{
						OFFSET 0.006522 -0.017919 0.066408 
						CHANNELS 3 Zrotation Yrotation Xrotation
						End Site
						{
							OFFSET 0.000000 -0.000000 0.034549 
						}
					}
				}
			}
		}
	}
	JOINT RHipJoint
	{
		OFFSET 0.000000 0.000000 0.000000 
		CHANNELS 3 Zrotation Yrotation Xrotation
		JOINT RightUpLeg
		{
			OFFSET -0.046656 -0.055197 0.022926 
			CHANNELS 3 Zrotation Yrotation Xrotation
			JOINT RightLeg
			{
				OFFSET -0.076145 -0.209206 0.000000 
				CHANNELS 3 Zrotation Yrotation Xrotation
				JOINT RightFoot
				{
					OFFSET -0.082175 -0.225773 0.000000 
					CHANNELS 3 Zrotation Yrotation Xrotation
					JOINT RightToeBase
					{
						OFFSET -0.008058 -0.022138 0.069332 
						CHANNELS 3 Zrotation Yrotation Xrotation
						End Site
						{
							OFFSET -0.000000 -0.000000 0.036391 
						}
					}
				}
			}
		}
	}
	JOINT LowerBack
	{
		OFFSET 0.000000 0.000000 0.000000 
		CHANNELS 3 Zrotation Yrotation Xrotation
		JOINT Spine
		{
			OFFSET -0.000011 0.066375 -0.007953 
			CHANNELS 3 Zrotation Yrotation Xrotation
			JOINT Spine1
			{
				OFFSET 0.001748 0.066993 -0.001037 
				CHANNELS 3 Zrotation Yrotation Xrotation
				JOINT Neck
				{
					OFFSET 0.000000 0.000000 0.000000 
					CHANNELS 3 Zrotation Yrotation Xrotation
					JOINT Neck1
					{
						OFFSET -0.003073 0.050852 0.007566 
						CHANNELS 3 Zrotation Yrotation Xrotation
						JOINT Head
						{
							OFFSET 0.003390 0.051888 -0.007078 
							CHANNELS 3 Zrotation Yrotation Xrotation
							End Site
							{
								OFFSET 0.001370 0.052583 -0.003294 
							}
						}
					}
				}
				JOINT LeftShoulder
				{
					OFFSET 0.000000 0.000000 0.000000 
					CHANNELS 3 Zrotation Yrotation Xrotation
					JOINT LeftArm
					{
						OFFSET 0.102846 0.024812 -0.021306 
						CHANNELS 3 Zrotation Yrotation Xrotation
						JOINT LeftForeArm
						{
							OFFSET 0.161034 -0.000000 -0.000000 
							CHANNELS 3 Zrotation Yrotation Xrotation
							JOINT LeftHand
							{
								OFFSET 0.117231 -0.000000 -0.000000 
								CHANNELS 3 Zrotation Yrotation Xrotation
								JOINT LeftFingerBase
								{
									OFFSET 0.000000 0.000000 0.000000 
									CHANNELS 3 Zrotation Yrotation Xrotation
									JOINT LeftHandIndex1
									{
										OFFSET 0.016537 -0.000000 0.000000 
										CHANNELS 3 Zrotation Yrotation Xrotation
										End Site
										{
											OFFSET 0.013332 -0.000000 0.000000 
										}
									}
								}
								JOINT LThumb
								{
									OFFSET 0.000000 0.000000 0.000000 
									CHANNELS 3 Zrotation Yrotation Xrotation
									End Site
									{
										OFFSET 0.013536 -0.000000 0.013536 
									}
								}
							}
						}
					}
				}
				JOINT RightShoulder
				{
					OFFSET 0.000000 0.000000 0.000000 
					CHANNELS 3 Zrotation Yrotation Xrotation
					JOINT RightArm
					{
						OFFSET -0.096067 0.033214 -0.013856 
						CHANNELS 3 Zrotation Yrotation Xrotation
						JOINT RightForeArm
						{
							OFFSET -0.165504 -0.000000 0.000000 
							CHANNELS 3 Zrotation Yrotation Xrotation
							JOINT RightHand
							{
								OFFSET -0.117545 -0.000000 -0.000000 
								CHANNELS 3 Zrotation Yrotation Xrotation
								JOINT RightFingerBase
								{
									OFFSET 0.000000 0.000000 0.000000 
									CHANNELS 3 Zrotation Yrotation Xrotation
									JOINT RightHandIndex1
									{
										OFFSET -0.023354 -0.000000 0.000000 
										CHANNELS 3 Zrotation Yrotation Xrotation
										End Site
										{
											OFFSET -0.018828 -0.000000 0.000000 
										}
									}
								}
								JOINT RThumb
								{
									OFFSET 0.000000 0.000000 0.000000 
									CHANNELS 3 Zrotation Yrotation Xrotation
									End Site
									{
										OFFSET -0.019116 -0.000000 0.019116 
									}
								}
							}
						}
					}
				}
			}
		}
	}
}
MOTION
Frames: 8
Frame Time: 0.008333
-0.363597 0.521859 -0.981078 0.000000 0.000000 0.000000 0.000000 0.000000 0.000000 -21.000000 0.000000 0.000000 0.000000 0.000000 0.000000 0.000000 0.000000 0.000000 0.000000 0.000000 0.000000 0.000000 0.000000 0.000000 21.000000 0.000000 0.000000 0.000000 0.000000 0.000000 0.000000 0.000000 0.000000 0.000000 0.000000 0.000000 0.000000 0.000000 0.000000 0.000000 0.000000 0.000000 0.000000 0.000000 0.000000 0.000000 0.000000 -16.000000 0.000000 0.000000 21.000000 0.000000 0.000000 11.000000 0.000000 0.000000 0.000000 -8.000000 0.000000 0.000000 0.000000 0.000000 0.000000 0.000000 0.000000 0.000000 0.000000 0.000000 0.000000 0.000000 0.000000 0.000000 0.000000 0.000000 0.000000 0.000000 0.000000 0.000000 8.000000 0.000000 0.000000 0.000000 0.000000 0.000000 0.000000 0.000000 0.000000 0.000000 0.000000 0.000000 0.000000 0.000000 0.000000 0.000000 0.000000 0.000000 
-0.363597 0.521859 -0.981078 2.657600 -5.315100 3.613700 0.000000 0.000000 0.000000 -15.101400 -6.623800 -28.271400 18.472799 19.944000 85.530701 -0.105900 -6.935900 6.648700 0.023400 -0.988600 -2.717300 0.000000 0.000000 0.000000 25.657700 6.289400 -12.918000 -5.763700 -14.195400 44.025799 -1.754700 -5.783800 -27.662201 -0.085100 1.881300 -5.177700 -6.191400 -0.608500 11.904600 4.295400 -1.383200 -1.201500 8.426600 -0.303100 -7.749700 -13.704100 -1.672400 -14.465700 5.636900 -0.252900 14.314300 4.045400 -0.382100 6.788700 -0.000000 0.000000 0.000000 -93.590103 25.243900 27.548500 108.443398 -58.674900 -75.901398 -0.000000 0.000000 -19.306200 21.691601 8.320800 3.294600 -7.125000 0.000000 -0.000000 -4.485000 38.888100 0.676900 -0.000000 0.000000 0.000000 72.208397 -12.201200 48.975300 -134.664993 50.931499 -97.501503 0.000000 0.000000 5.240000 -19.449900 29.998699 -10.013000 7.125000 -0.000000 -0.000000 6.680100 1.308400 6.877400 
-0.363747 0.522897 -0.970228 2.135900 -5.411000 3.781100 0.000000 0.000000 0.000000 -14.488500 -6.793300 -30.254801 18.246300 19.926100 84.866402 -0.165200 -7.347100 1.060200 1.193500 -6.932200 -19.514500 0.000000 0.000000 0.000000 26.278900 5.902300 -11.109600 -5.503000 -13.928800 42.952999 -1.707100 -5.750100 -27.315100 -0.108900 2.128100 -5.859700 -5.804400 -0.600600 11.712900 4.565700 -1.286700 -1.391600 8.482800 -0.254300 -7.866700 -13.868500 -1.525400 -13.795300 5.502100 -0.095300 14.125900 4.035200 -0.327600 6.598700 -0.000000 0.000000 0.000000 -94.455704 26.514700 26.711800 109.562897 -58.503399 -76.856796 -0.000000 0.000000 -19.565701 21.350100 7.847400 3.055000 -7.125000 0.000000 -0.000000 -4.722800 38.357899 0.774600 -0.000000 0.000000 0.000000 71.780403 -11.788200 49.537998 -135.606094 50.468102 -98.229698 0.000000 0.000000 4.338800 -19.531099 29.192499 -9.816000 7.125000 -0.000000 -0.000000 6.537300 0.504400 6.637900 
-0.363950 0.524262 -0.959591 1.757800 -5.260800 4.080800 0.000000 0.000000 0.000000 -14.084300 -7.222300 -32.269100 17.856701 19.889500 83.722397 -0.117200 -7.111400 -1.370500 1.900100 -8.654900 -24.721600 0.000000 0.000000 0.000000 26.733999 5.297700 -9.724700 -5.258700 -13.669400 41.928902 -1.520800 -6.026300 -26.149599 -0.152700 2.518100 -6.939800 -5.577500 -0.544000 11.744000 4.766600 -1.160300 -1.900700 8.575600 -0.151600 -8.465300 -14.275300 -1.475200 -12.630700 5.855700 -0.181700 14.114800 4.204200 -0.374000 6.404300 0.000000 0.000000 0.000000 -95.144203 28.118700 26.225201 110.578499 -58.337799 -77.722000 -0.000000 0.000000 -19.903200 20.810200 7.616000 2.883600 -7.125000 0.000000 -0.000000 -5.156900 38.074100 0.882200 0.000000 0.000000 0.000000 71.553398 -11.868100 49.884998 -136.429398 50.048698 -98.862801 0.000000 0.000000 3.335800 -20.371000 29.234900 -10.278900 7.125000 -0.000000 -0.000000 6.053100 0.706100 6.161600 
-0.364116 0.526372 -0.948637 1.478200 -5.325900 4.236600 0.000000 0.000000 0.000000 -13.926400 -7.501500 -33.946400 17.353500 19.831200 82.241302 -0.153700 -7.049700 1.216900 0.498700 -4.527500 -12.565800 0.000000 0.000000 0.000000 27.048100 4.627100 -8.269900 -4.993800 -13.376800 40.795898 -1.200600 -6.732300 -24.145300 -0.356300 3.835000 -10.612900 -3.321400 1.077600 11.213700 3.061700 1.203400 -0.497900 4.924600 0.770700 -6.974800 -12.115700 -3.739400 -17.367901 6.467900 -3.208200 15.062400 3.754300 -1.610400 7.815200 0.000000 0.000000 0.000000 -89.567101 25.133400 31.897600 110.096497 -58.417599 -77.311600 -0.000000 0.000000 -20.697399 20.179501 7.385500 2.704800 -7.125000 0.000000 -0.000000 -5.665900 37.787399 1.009900 0.000000 0.000000 0.000000 76.020203 -9.484800 44.266899 -136.879501 49.813801 -99.207199 0.000000 0.000000 2.665700 -21.279301 29.512300 -10.860500 7.125000 -0.000000 -0.000000 5.560100 1.167200 5.698900 
-0.364019 0.528384 -0.937281 1.071800 -5.396600 4.242500 0.000000 0.000000 0.000000 -13.735700 -7.855700 -35.269199 16.742500 19.743700 80.436501 -0.143700 -6.740000 1.734500 0.167500 -2.636300 -7.267800 0.000000 0.000000 0.000000 27.318001 4.271900 -6.082300 -4.716300 -13.057000 39.582001 -1.189600 -5.326500 -23.161800 -0.262400 3.295300 -9.101900 -4.658100 0.180900 11.333400 4.792300 -0.040200 -1.624000 7.835400 0.327900 -8.131900 -14.219700 -2.259700 -13.265200 5.860900 -1.157500 13.792700 4.103500 -0.824000 6.513200 0.000000 -0.000000 0.000000 -94.983200 28.798800 27.233500 111.684898 -58.146400 -78.662804 -0.000000 0.000000 -20.720501 19.967899 7.575500 2.742300 -7.125000 0.000000 -0.000000 -5.869500 37.973801 1.019600 0.000000 -0.000000 0.000000 72.067802 -10.427000 48.486401 -137.918304 49.256001 -99.997597 0.000000 0.000000 1.014400 -21.513700 29.153700 -10.870200 7.125000 -0.000000 -0.000000 5.377300 0.846300 5.480200 
-0.363734 0.530522 -0.925162 0.914600 -5.610800 4.186800 0.000000 0.000000 0.000000 -14.014800 -8.039100 -36.157799 15.980600 19.608200 78.173897 -0.115700 -6.185600 0.749300 0.177500 -2.714000 -7.483600 0.000000 0.000000 0.000000 27.237801 3.651000 -3.969900 -4.431600 -12.713600 38.305698 -1.112100 -4.589400 -22.070499 -0.488000 4.479400 -12.429300 -3.996600 0.565700 11.316200 4.464900 0.547000 -1.758600 6.982300 0.584800 -8.352400 -13.816500 -2.602500 -12.752500 5.882500 -1.779700 13.349500 3.980500 -1.095000 6.343500 0.000000 0.000000 0.000000 -94.336403 29.867901 27.796200 112.466301 -58.004200 -79.325996 -0.000000 0.000000 -21.215700 19.877501 8.172500 2.942200 -7.125000 0.000000 -0.000000 -6.024000 38.597099 0.954100 0.000000 0.000000 0.000000 72.678398 -10.911700 47.992901 -138.937103 48.687099 -100.766197 0.000000 0.000000 0.062900 -21.964399 29.028900 -11.073000 7.125000 -0.000000 -0.000000 5.098200 0.808300 5.190100 
-0.363416 0.532737 -0.912544 0.775800 -5.921500 4.067300 0.000000 0.000000 0.000000 -14.387200 -8.104700 -36.657700 15.096800 19.413601 75.528198 -0.078300 -5.570100 -0.673700 0.292900 -3.480300 -9.618800 0.000000 0.000000 0.000000 27.044201 3.096000 -1.818700 -4.150900 -12.358500 37.012199 -0.977600 -3.908600 -20.477501 -0.638100 5.110700 -14.224600 -3.220200 0.906400 11.104700 4.063000 1.085200 -1.777700 5.988300 0.795600 -8.302400 -13.319700 -2.855200 -12.514200 5.852100 -2.246300 13.166800 3.844600 -1.296100 6.284500 0.000000 -0.000000 0.000000 -93.775902 30.697599 28.131001 112.922897 -57.918301 -79.713097 -0.000000 0.000000 -21.591101 19.787100 8.293800 2.970800 -7.125000 0.000000 -0.000000 -6.117800 38.718300 0.950900 0.000000 -0.000000 0.000000 73.365799 -11.262100 47.707901 -139.961105 48.092899 -101.531799 0.000000 -0.000000 -0.801200 -22.412901 28.517500 -11.139500 7.125000 -0.000000 -0.000000 4.768500 0.371900 4.816000 
